<svg width="65" height="65" viewBox="0 0 65 65" fill="none" xmlns="http://www.w3.org/2000/svg">
<g clip-path="url(#clip0_156_527)">
<circle cx="32.5" cy="32.5" r="32.5" fill="#2D2D2D"/>
<path fill-rule="evenodd" clip-rule="evenodd" d="M32.5002 5.00801C17.3167 5.00801 5.00801 17.3167 5.00801 32.5002C5.00801 47.6836 17.3167 59.9923 32.5002 59.9923C47.6836 59.9923 59.9923 47.6836 59.9923 32.5002C59.9923 17.3167 47.6836 5.00801 32.5002 5.00801ZM-0.102051 32.5002C-0.102051 14.4945 14.4945 -0.102051 32.5002 -0.102051C50.5059 -0.102051 65.1024 14.4945 65.1024 32.5002C65.1024 50.5059 50.5059 65.1024 32.5002 65.1024C14.4945 65.1024 -0.102051 50.5059 -0.102051 32.5002Z" fill="white"/>
<path d="M38.2233 43.3332C38.0189 43.1288 38.0189 42.72 37.8145 42.3112C37.8145 41.9024 37.6101 41.4936 37.6101 41.0847C37.2012 41.4936 36.7924 41.698 36.3836 42.1068C35.9748 42.5156 35.3616 42.72 34.9528 42.9244C34.3396 43.1288 33.9308 43.3332 33.1132 43.5376C32.5 43.742 31.6824 43.742 31.0692 43.742C29.8428 43.742 28.8207 43.5376 27.7987 43.1288C26.7767 42.72 25.9591 42.3112 25.1415 41.698C24.3239 41.0847 23.9151 40.2671 23.5063 39.4495C23.0975 38.6319 22.8931 37.6099 22.8931 36.5879C22.8931 34.1351 23.9151 32.091 25.7547 30.8646C27.5943 29.4338 30.456 28.8206 34.1352 28.8206H37.6101V27.3898C37.6101 26.1634 37.2012 25.3458 36.588 24.7325C35.7704 24.1193 34.7484 23.7105 33.3176 23.7105C32.0912 23.7105 31.2736 23.9149 30.6604 24.5281C30.0472 25.1414 29.8428 25.7546 29.8428 26.5722H23.7107C23.7107 25.5502 23.9151 24.5281 24.3239 23.7105C24.7327 22.8929 25.3459 22.0753 26.3679 21.2577C27.1855 20.6445 28.2075 20.0313 29.4339 19.6225C30.6604 19.2137 32.0912 19.0093 33.7264 19.0093C35.1572 19.0093 36.3836 19.2137 37.6101 19.6225C38.8365 20.0313 39.8585 20.4401 40.8805 21.2577C41.6981 21.8709 42.5157 22.8929 42.9245 23.9149C43.3333 24.9369 43.7421 26.1634 43.7421 27.5942V37.8143C43.7421 39.0407 43.7421 40.0627 43.9465 40.8803C44.1509 41.698 44.3553 42.5156 44.5597 42.9244V43.3332H38.2233ZM32.2956 39.0407C32.9088 39.0407 33.522 39.0407 33.9308 38.8363C34.544 38.6319 34.9528 38.4275 35.3616 38.2231C35.7704 38.0187 36.1792 37.8143 36.3836 37.4055C36.588 37.2011 36.9968 36.7923 37.2012 36.5879V32.4998H34.1352C33.1132 32.4998 32.2956 32.4998 31.6824 32.7042C31.0692 32.9086 30.456 33.113 30.0472 33.5219C29.6384 33.9307 29.2295 34.1351 29.0251 34.7483C28.8207 35.1571 28.8207 35.7703 28.8207 36.1791C28.8207 36.9967 29.0251 37.6099 29.6384 38.2231C30.2516 38.8363 31.2736 39.0407 32.2956 39.0407Z" fill="white"/>
</g>
<defs>
<clipPath id="clip0_156_527">
<rect width="65" height="65" fill="white"/>
</clipPath>
</defs>
</svg>
