<svg width="22" height="22" viewBox="0 0 22 22" fill="none" xmlns="http://www.w3.org/2000/svg">
<g clip-path="url(#clip0_86_1798)">
<path fill-rule="evenodd" clip-rule="evenodd" d="M10.9999 1.69489C5.8609 1.69489 1.69489 5.8609 1.69489 10.9999C1.69489 16.139 5.8609 20.305 10.9999 20.305C16.139 20.305 20.305 16.139 20.305 10.9999C20.305 5.8609 16.139 1.69489 10.9999 1.69489ZM-0.034668 10.9999C-0.034668 4.90569 4.90569 -0.034668 10.9999 -0.034668C17.0942 -0.034668 22.0345 4.90569 22.0345 10.9999C22.0345 17.0942 17.0942 22.0345 10.9999 22.0345C4.90569 22.0345 -0.034668 17.0942 -0.034668 10.9999Z" fill="#F4BA61"/>
<path d="M12.9372 14.6668C12.868 14.5976 12.868 14.4592 12.7989 14.3209C12.7989 14.1825 12.7297 14.0441 12.7297 13.9058C12.5913 14.0441 12.4529 14.1133 12.3146 14.2517C12.1762 14.3901 11.9687 14.4592 11.8303 14.5284C11.6227 14.5976 11.4844 14.6668 11.2077 14.736C11.0001 14.8052 10.7234 14.8052 10.5158 14.8052C10.1007 14.8052 9.75483 14.736 9.40891 14.5976C9.063 14.4592 8.78627 14.3209 8.50954 14.1133C8.23281 13.9058 8.09445 13.629 7.95608 13.3523C7.81772 13.0756 7.74854 12.7297 7.74854 12.3838C7.74854 11.5536 8.09445 10.8618 8.71709 10.4467C9.33973 9.96238 10.3083 9.75484 11.5536 9.75484H12.7297V9.27056C12.7297 8.85547 12.5913 8.57874 12.3838 8.37119C12.107 8.16364 11.7611 8.02528 11.2768 8.02528C10.8617 8.02528 10.585 8.09446 10.3775 8.30201C10.1699 8.50955 10.1007 8.7171 10.1007 8.99383H8.02527C8.02527 8.64792 8.09445 8.30201 8.23281 8.02528C8.37118 7.74855 8.57872 7.47182 8.92464 7.19509C9.20137 6.98754 9.54728 6.77999 9.96237 6.64163C10.3775 6.50326 10.8617 6.43408 11.4152 6.43408C11.8995 6.43408 12.3146 6.50326 12.7297 6.64163C13.1448 6.77999 13.4907 6.91836 13.8366 7.19509C14.1133 7.40264 14.39 7.74855 14.5284 8.09446C14.6668 8.44037 14.8051 8.85547 14.8051 9.33974V12.7989C14.8051 13.214 14.8051 13.5599 14.8743 13.8366C14.9435 14.1133 15.0127 14.3901 15.0819 14.5284V14.6668H12.9372ZM10.9309 13.214C11.1385 13.214 11.346 13.214 11.4844 13.1448C11.6919 13.0756 11.8303 13.0064 11.9687 12.9372C12.107 12.868 12.2454 12.7989 12.3146 12.6605C12.3838 12.5913 12.5221 12.4529 12.5913 12.3838V11.0001H11.5536C11.2077 11.0001 10.9309 11.0001 10.7234 11.0693C10.5158 11.1385 10.3083 11.2077 10.1699 11.346C10.0316 11.4844 9.89319 11.5536 9.82401 11.7611C9.75482 11.8995 9.75483 12.107 9.75483 12.2454C9.75483 12.5221 9.82401 12.7297 10.0316 12.9372C10.2391 13.1448 10.585 13.214 10.9309 13.214Z" fill="#F4BA61"/>
</g>
<defs>
<clipPath id="clip0_86_1798">
<rect width="22" height="22" fill="white"/>
</clipPath>
</defs>
</svg>
