<svg width="20" height="20" viewBox="0 0 20 20" fill="none" xmlns="http://www.w3.org/2000/svg">
<g clip-path="url(#clip0_147_554)">
<path fill-rule="evenodd" clip-rule="evenodd" d="M9.99995 1.54083C5.32811 1.54083 1.54083 5.32811 1.54083 9.99995C1.54083 14.6718 5.32811 18.4591 9.99995 18.4591C14.6718 18.4591 18.4591 14.6718 18.4591 9.99995C18.4591 5.32811 14.6718 1.54083 9.99995 1.54083ZM-0.0314941 9.99995C-0.0314941 4.45974 4.45974 -0.0314941 9.99995 -0.0314941C15.5402 -0.0314941 20.0314 4.45974 20.0314 9.99995C20.0314 15.5402 15.5402 20.0314 9.99995 20.0314C4.45974 20.0314 -0.0314941 15.5402 -0.0314941 9.99995Z" fill="white"/>
<path d="M11.7609 13.3334C11.698 13.2705 11.698 13.1447 11.6351 13.0189C11.6351 12.8931 11.5722 12.7674 11.5722 12.6416C11.4465 12.7674 11.3207 12.8303 11.1949 12.956C11.0691 13.0818 10.8804 13.1447 10.7546 13.2076C10.566 13.2705 10.4402 13.3334 10.1886 13.3963C9.99992 13.4592 9.74835 13.4592 9.55967 13.4592C9.18231 13.4592 8.86785 13.3963 8.55338 13.2705C8.23891 13.1447 7.98734 13.0189 7.73577 12.8303C7.4842 12.6416 7.35841 12.39 7.23262 12.1384C7.10684 11.8869 7.04395 11.5724 7.04395 11.2579C7.04395 10.5032 7.35841 9.87428 7.92445 9.49692C8.49049 9.05667 9.37099 8.86799 10.5031 8.86799H11.5722V8.42774C11.5722 8.05038 11.4465 7.79881 11.2578 7.61013C11.0062 7.42145 10.6917 7.29566 10.2515 7.29566C9.87413 7.29566 9.62256 7.35855 9.43388 7.54723C9.2452 7.73591 9.18231 7.92459 9.18231 8.17616H7.29552C7.29552 7.8617 7.35841 7.54723 7.4842 7.29566C7.60998 7.04409 7.79866 6.79252 8.11313 6.54094C8.3647 6.35227 8.67917 6.16359 9.05652 6.0378C9.43388 5.91201 9.87413 5.84912 10.3773 5.84912C10.8175 5.84912 11.1949 5.91201 11.5722 6.0378C11.9496 6.16359 12.2641 6.28937 12.5785 6.54094C12.8301 6.72962 13.0817 7.04409 13.2075 7.35855C13.3333 7.67302 13.459 8.05038 13.459 8.49063V11.6353C13.459 12.0126 13.459 12.3271 13.5219 12.5787C13.5848 12.8303 13.6477 13.0818 13.7106 13.2076V13.3334H11.7609ZM9.93703 12.0126C10.1257 12.0126 10.3144 12.0126 10.4402 11.9497C10.6289 11.8869 10.7546 11.824 10.8804 11.7611C11.0062 11.6982 11.132 11.6353 11.1949 11.5095C11.2578 11.4466 11.3836 11.3208 11.4465 11.2579V10.0001H10.5031C10.1886 10.0001 9.93703 10.0001 9.74835 10.063C9.55967 10.1259 9.37099 10.1887 9.2452 10.3145C9.11942 10.4403 8.99363 10.5032 8.93074 10.6919C8.86784 10.8177 8.86785 11.0064 8.86785 11.1321C8.86785 11.3837 8.93074 11.5724 9.11942 11.7611C9.3081 11.9498 9.62256 12.0126 9.93703 12.0126Z" fill="white"/>
</g>
<defs>
<clipPath id="clip0_147_554">
<rect width="20" height="20" fill="white"/>
</clipPath>
</defs>
</svg>
