<svg width="46" height="46" viewBox="0 0 46 46" fill="none" xmlns="http://www.w3.org/2000/svg">
<path d="M23.0001 14.8543V24.9168M40.4035 16.4452V29.5552C40.4035 31.7018 39.2535 33.6952 37.3943 34.7877L26.0093 41.3618C24.1501 42.4352 21.8501 42.4352 19.9718 41.3618L8.58681 34.7877C7.67021 34.2562 6.9096 33.4929 6.3814 32.5745C5.85319 31.656 5.57599 30.6147 5.57764 29.5552V16.4452C5.57764 14.2985 6.72764 12.3052 8.58681 11.2127L19.9718 4.6385C21.831 3.56516 24.131 3.56516 26.0093 4.6385L37.3943 11.2127C39.2535 12.3052 40.4035 14.2793 40.4035 16.4452Z" stroke="#DC5141" stroke-width="4" stroke-linecap="round" stroke-linejoin="round"/>
<path d="M23 31.0498V31.2415" stroke="#DC5141" stroke-width="5" stroke-linecap="round" stroke-linejoin="round"/>
</svg>
