<svg width="35" height="23" viewBox="0 0 35 23" fill="none" xmlns="http://www.w3.org/2000/svg">
<path d="M0 6C0 2.68629 2.68629 0 6 0H29.537C32.3447 0 34.6207 2.27604 34.6207 5.08369V11.1301C34.6207 15.3657 31.6057 19.0014 27.4432 19.7851L17.3103 18.4336H6C2.68629 18.4336 0 15.7473 0 12.4336V6Z" fill="#F4F4F4"/>
<path d="M17.3103 18.4336L17.7325 22.3111L27.4432 19.7851L17.3103 18.4336Z" fill="#F4F4F4"/>
<path d="M14.6177 11.5403H20.0031C18.9494 14.0075 15.7867 14.2331 14.7178 11.7724C14.6848 11.6965 14.6514 11.6191 14.6177 11.5403Z" fill="#1F1F26"/>
<path d="M9.23218 7.89846C9.23218 6.51046 10.3574 5.38525 11.7454 5.38525C13.3317 5.38525 14.6176 6.6712 14.6176 8.25749V11.54H9.23218V7.89846Z" fill="#1F1F26"/>
<path d="M20.0031 7.89846C20.0031 6.51046 21.1283 5.38525 22.5163 5.38525C24.1025 5.38525 25.3885 6.6712 25.3885 8.25749V11.54H20.0031V7.89846Z" fill="#1F1F26"/>
</svg>
