<svg width="220" height="24" viewBox="0 0 220 24" fill="none" xmlns="http://www.w3.org/2000/svg">
<path fill-rule="evenodd" clip-rule="evenodd" d="M19.0721 18.2779V21.8619L27.5642 19.653L27.5978 19.6467C31.2876 18.9519 33.9603 15.729 33.9603 11.9743V5.92793C33.9603 3.67257 32.132 1.84424 29.8766 1.84424H6.3396C3.57817 1.84424 1.3396 4.08281 1.3396 6.84423V13.2779C1.3396 16.0393 3.57818 18.2779 6.3396 18.2779H19.0721ZM18.0721 23.1553V19.2779H6.3396C3.02589 19.2779 0.3396 16.5916 0.3396 13.2779V6.84423C0.3396 3.53053 3.02589 0.844238 6.3396 0.844238H29.8766C32.6842 0.844238 34.9603 3.12028 34.9603 5.92793V11.9743C34.9603 16.2099 31.9453 19.8456 27.7828 20.6294L18.0721 23.1553Z" fill="#1F1F26"/>
<path fill-rule="evenodd" clip-rule="evenodd" d="M20.3427 12.3844C20.1762 12.7743 19.957 13.1082 19.7017 13.3844C18.5347 14.647 16.6136 14.7029 15.5231 13.3844C15.3428 13.1663 15.1851 12.9106 15.0574 12.6166C15.0244 12.5406 14.991 12.4633 14.9573 12.3844H20.3427Z" fill="#1F1F26"/>
<path fill-rule="evenodd" clip-rule="evenodd" d="M13.9572 11.3844V9.10184C13.9572 8.06784 13.119 7.22961 12.085 7.22961C11.2492 7.22961 10.5717 7.9071 10.5717 8.74282V11.3844H13.9572ZM12.085 6.22961C10.6969 6.22961 9.57175 7.35481 9.57175 8.74282V12.3844L14.9573 12.3844L14.9572 9.10184C14.9572 7.51555 13.6712 6.22961 12.085 6.22961Z" fill="#1F1F26"/>
<path fill-rule="evenodd" clip-rule="evenodd" d="M24.7281 11.3844V9.10184C24.7281 8.06784 23.8898 7.22961 22.8558 7.22961C22.0201 7.22961 21.3426 7.9071 21.3426 8.74282V11.3844H24.7281ZM22.8558 6.22961C21.4678 6.22961 20.3426 7.35481 20.3426 8.74282L20.3427 12.3844L25.7281 12.3844V9.10184C25.7281 7.51555 24.4421 6.22961 22.8558 6.22961Z" fill="#1F1F26"/>
<path fill-rule="evenodd" clip-rule="evenodd" d="M6.3396 0.844238H29.8766C32.6842 0.844238 34.9603 3.12028 34.9603 5.92793V11.9743C34.9603 16.2099 31.9453 19.8456 27.7828 20.6294L18.0721 23.1553V19.2779H6.3396C3.02589 19.2779 0.3396 16.5916 0.3396 13.2779V6.84423C0.3396 3.53053 3.02589 0.844238 6.3396 0.844238ZM27.5642 19.653L27.5978 19.6467C31.2876 18.9519 33.9603 15.729 33.9603 11.9743V5.92793C33.9603 3.67257 32.132 1.84424 29.8766 1.84424H6.3396C3.57817 1.84424 1.3396 4.08281 1.3396 6.84423V13.2779C1.3396 16.0393 3.57818 18.2779 6.3396 18.2779H19.0721V21.8619L27.5642 19.653ZM19.7017 13.3844C19.957 13.1082 20.1762 12.7743 20.3427 12.3844L25.7281 12.3844V9.10184C25.7281 7.51555 24.4421 6.22961 22.8558 6.22961C21.4678 6.22961 20.3426 7.35481 20.3426 8.74282L20.3427 12.3844H14.9573L14.9572 9.10184C14.9572 7.51555 13.6712 6.22961 12.085 6.22961C10.6969 6.22961 9.57175 7.35481 9.57175 8.74282V12.3844L14.9573 12.3844C14.991 12.4633 15.0244 12.5406 15.0574 12.6166C15.1851 12.9106 15.3428 13.1663 15.5231 13.3844C16.6136 14.7029 18.5347 14.647 19.7017 13.3844ZM24.7281 9.10184V11.3844H21.3426V8.74282C21.3426 7.9071 22.0201 7.22961 22.8558 7.22961C23.8898 7.22961 24.7281 8.06784 24.7281 9.10184ZM13.9572 11.3844V9.10184C13.9572 8.06784 13.119 7.22961 12.085 7.22961C11.2492 7.22961 10.5717 7.9071 10.5717 8.74282V11.3844H13.9572Z" fill="#1F1F26"/>
<path d="M46.9602 20.1397V3.85965H58.7522V7.51165H51.1842V11.0316H57.7622V14.5296H51.1842V20.1397H46.9602Z" fill="#1F1F26"/>
<path d="M58.4337 20.1397L63.8457 3.85965H69.5437L74.9557 20.1397H70.5557L69.6977 17.4116H63.6917L62.8337 20.1397H58.4337ZM64.8137 13.8036H68.5757L66.7057 7.79765L64.8137 13.8036Z" fill="#1F1F26"/>
<path d="M76.7161 20.1397V3.85965H80.9401V20.1397H76.7161Z" fill="#1F1F26"/>
<path d="M83.5696 20.1397V3.85965H90.7416C91.9589 3.85965 93.0296 4.05765 93.9536 4.45365C94.8776 4.84965 95.5962 5.43632 96.1096 6.21365C96.6229 6.97632 96.8796 7.92232 96.8796 9.05165C96.8796 10.1516 96.6229 11.0903 96.1096 11.8676C95.6109 12.6303 94.9216 13.2096 94.0416 13.6056L97.2096 20.1397H92.5676L89.8176 14.2436H87.7936V20.1397H83.5696ZM90.6756 7.48965H87.7936V10.8776H90.6756C91.2622 10.8776 91.7389 10.731 92.1056 10.4376C92.4722 10.1443 92.6556 9.72632 92.6556 9.18365C92.6556 8.62632 92.4722 8.20832 92.1056 7.92965C91.7389 7.63632 91.2622 7.48965 90.6756 7.48965Z" fill="#1F1F26"/>
<path d="M100.47 20.1397V3.85965H105.992C107.151 3.85965 108.119 4.10898 108.896 4.60765C109.688 5.09165 110.275 5.72232 110.656 6.49965C111.052 7.26232 111.25 8.06898 111.25 8.91965C111.25 9.75565 111.052 10.5623 110.656 11.3396C110.275 12.117 109.688 12.755 108.896 13.2536C108.119 13.7376 107.151 13.9796 105.992 13.9796H101.702V20.1397H100.47ZM105.992 4.98165H101.702V12.8576H105.992C106.887 12.8576 107.635 12.667 108.236 12.2856C108.838 11.9043 109.285 11.413 109.578 10.8116C109.872 10.2103 110.018 9.57965 110.018 8.91965C110.018 8.25965 109.872 7.62898 109.578 7.02765C109.285 6.42632 108.838 5.93498 108.236 5.55365C107.635 5.17232 106.887 4.98165 105.992 4.98165Z" fill="#1F1F26"/>
<path d="M114.091 20.1397V3.85965H119.305C120.391 3.85965 121.293 4.07965 122.011 4.51965C122.745 4.94498 123.287 5.50232 123.639 6.19165C124.006 6.86632 124.189 7.57765 124.189 8.32565C124.189 9.00032 124.043 9.64565 123.749 10.2616C123.471 10.8776 123.045 11.413 122.473 11.8676C121.901 12.3076 121.19 12.5936 120.339 12.7256L124.717 20.1397H123.287L118.997 12.8137H115.323V20.1397H114.091ZM119.305 4.98165H115.323V11.7136H119.305C120.112 11.7136 120.779 11.5523 121.307 11.2296C121.85 10.8923 122.253 10.467 122.517 9.95365C122.781 9.44032 122.913 8.90498 122.913 8.34765C122.913 7.79032 122.781 7.25498 122.517 6.74165C122.253 6.22832 121.85 5.81032 121.307 5.48765C120.779 5.15032 120.112 4.98165 119.305 4.98165Z" fill="#1F1F26"/>
<path d="M135.161 20.3596C133.9 20.3596 132.785 20.125 131.817 19.6556C130.864 19.1716 130.064 18.5336 129.419 17.7416C128.774 16.935 128.282 16.0403 127.945 15.0576C127.622 14.0603 127.461 13.041 127.461 11.9997C127.461 10.9583 127.622 9.93898 127.945 8.94165C128.282 7.94432 128.774 7.04965 129.419 6.25765C130.064 5.45098 130.864 4.81298 131.817 4.34365C132.785 3.87432 133.9 3.63965 135.161 3.63965C136.422 3.63965 137.53 3.87432 138.483 4.34365C139.451 4.81298 140.258 5.45098 140.903 6.25765C141.563 7.04965 142.054 7.94432 142.377 8.94165C142.7 9.93898 142.861 10.9583 142.861 11.9997C142.861 13.041 142.7 14.0603 142.377 15.0576C142.054 16.0403 141.563 16.935 140.903 17.7416C140.258 18.5336 139.451 19.1716 138.483 19.6556C137.53 20.125 136.422 20.3596 135.161 20.3596ZM135.161 19.1936C136.334 19.1936 137.405 18.9076 138.373 18.3356C139.356 17.749 140.14 16.9203 140.727 15.8496C141.314 14.7643 141.607 13.481 141.607 11.9997C141.607 10.5036 141.314 9.22032 140.727 8.14965C140.14 7.07898 139.356 6.25765 138.373 5.68565C137.405 5.09898 136.334 4.80565 135.161 4.80565C134.002 4.80565 132.932 5.09898 131.949 5.68565C130.981 6.25765 130.204 7.07898 129.617 8.14965C129.03 9.22032 128.737 10.5036 128.737 11.9997C128.737 13.481 129.03 14.7643 129.617 15.8496C130.204 16.9203 130.981 17.749 131.949 18.3356C132.932 18.9076 134.002 19.1936 135.161 19.1936Z" fill="#1F1F26"/>
<path d="M149.023 20.1397V4.98165H143.545V3.85965H155.711V4.98165H150.255V20.1397H149.023Z" fill="#1F1F26"/>
<path d="M164.058 20.3596C162.796 20.3596 161.682 20.125 160.714 19.6556C159.76 19.1716 158.961 18.5336 158.316 17.7416C157.67 16.935 157.179 16.0403 156.842 15.0576C156.519 14.0603 156.358 13.041 156.358 11.9997C156.358 10.9583 156.519 9.93898 156.842 8.94165C157.179 7.94432 157.67 7.04965 158.316 6.25765C158.961 5.45098 159.76 4.81298 160.714 4.34365C161.682 3.87432 162.796 3.63965 164.058 3.63965C165.319 3.63965 166.426 3.87432 167.38 4.34365C168.348 4.81298 169.154 5.45098 169.8 6.25765C170.46 7.04965 170.951 7.94432 171.274 8.94165C171.596 9.93898 171.758 10.9583 171.758 11.9997C171.758 13.041 171.596 14.0603 171.274 15.0576C170.951 16.0403 170.46 16.935 169.8 17.7416C169.154 18.5336 168.348 19.1716 167.38 19.6556C166.426 20.125 165.319 20.3596 164.058 20.3596ZM164.058 19.1936C165.231 19.1936 166.302 18.9076 167.27 18.3356C168.252 17.749 169.037 16.9203 169.624 15.8496C170.21 14.7643 170.504 13.481 170.504 11.9997C170.504 10.5036 170.21 9.22032 169.624 8.14965C169.037 7.07898 168.252 6.25765 167.27 5.68565C166.302 5.09898 165.231 4.80565 164.058 4.80565C162.899 4.80565 161.828 5.09898 160.846 5.68565C159.878 6.25765 159.1 7.07898 158.514 8.14965C157.927 9.22032 157.634 10.5036 157.634 11.9997C157.634 13.481 157.927 14.7643 158.514 15.8496C159.1 16.9203 159.878 17.749 160.846 18.3356C161.828 18.9076 162.899 19.1936 164.058 19.1936Z" fill="#1F1F26"/>
<path d="M181.884 20.3596C180.638 20.3596 179.545 20.125 178.606 19.6556C177.682 19.1863 176.905 18.5556 176.274 17.7636C175.658 16.957 175.189 16.055 174.866 15.0576C174.558 14.0603 174.404 13.0336 174.404 11.9776C174.404 10.9363 174.558 9.92432 174.866 8.94165C175.189 7.94432 175.658 7.04965 176.274 6.25765C176.905 5.45098 177.682 4.81298 178.606 4.34365C179.545 3.87432 180.638 3.63965 181.884 3.63965C182.896 3.63965 183.762 3.77165 184.48 4.03565C185.214 4.29965 185.822 4.63698 186.306 5.04765C186.805 5.45832 187.201 5.89832 187.494 6.36765C187.802 6.83698 188.03 7.27698 188.176 7.68765C188.338 8.09832 188.44 8.43565 188.484 8.69965C188.543 8.96365 188.572 9.09565 188.572 9.09565H187.318C187.318 9.09565 187.282 8.95632 187.208 8.67765C187.135 8.38432 186.996 8.02498 186.79 7.59965C186.6 7.15965 186.306 6.72698 185.91 6.30165C185.514 5.87632 184.986 5.52432 184.326 5.24565C183.681 4.95232 182.874 4.80565 181.906 4.80565C180.865 4.80565 179.956 5.01098 179.178 5.42165C178.401 5.83232 177.748 6.38232 177.22 7.07165C176.707 7.74632 176.318 8.51632 176.054 9.38165C175.79 10.2323 175.658 11.0976 175.658 11.9776C175.658 12.887 175.79 13.767 176.054 14.6176C176.318 15.4683 176.707 16.2383 177.22 16.9276C177.748 17.617 178.401 18.167 179.178 18.5777C179.956 18.9883 180.865 19.1936 181.906 19.1936C182.874 19.1936 183.681 19.0543 184.326 18.7757C184.986 18.4823 185.514 18.123 185.91 17.6976C186.306 17.2577 186.6 16.825 186.79 16.3996C186.996 15.9743 187.135 15.6223 187.208 15.3436C187.282 15.0503 187.318 14.9036 187.318 14.9036H188.572C188.572 14.9036 188.543 15.0356 188.484 15.2996C188.44 15.5636 188.338 15.901 188.176 16.3116C188.03 16.7223 187.802 17.1623 187.494 17.6316C187.201 18.101 186.805 18.541 186.306 18.9516C185.822 19.3623 185.214 19.6996 184.48 19.9636C183.762 20.2276 182.896 20.3596 181.884 20.3596Z" fill="#1F1F26"/>
<path d="M198.884 20.3596C197.622 20.3596 196.508 20.125 195.54 19.6556C194.586 19.1716 193.787 18.5336 193.142 17.7416C192.496 16.935 192.005 16.0403 191.668 15.0576C191.345 14.0603 191.184 13.041 191.184 11.9997C191.184 10.9583 191.345 9.93898 191.668 8.94165C192.005 7.94432 192.496 7.04965 193.142 6.25765C193.787 5.45098 194.586 4.81298 195.54 4.34365C196.508 3.87432 197.622 3.63965 198.884 3.63965C200.145 3.63965 201.252 3.87432 202.206 4.34365C203.174 4.81298 203.98 5.45098 204.626 6.25765C205.286 7.04965 205.777 7.94432 206.1 8.94165C206.422 9.93898 206.584 10.9583 206.584 11.9997C206.584 13.041 206.422 14.0603 206.1 15.0576C205.777 16.0403 205.286 16.935 204.626 17.7416C203.98 18.5336 203.174 19.1716 202.206 19.6556C201.252 20.125 200.145 20.3596 198.884 20.3596ZM198.884 19.1936C200.057 19.1936 201.128 18.9076 202.096 18.3356C203.078 17.749 203.863 16.9203 204.45 15.8496C205.036 14.7643 205.33 13.481 205.33 11.9997C205.33 10.5036 205.036 9.22032 204.45 8.14965C203.863 7.07898 203.078 6.25765 202.096 5.68565C201.128 5.09898 200.057 4.80565 198.884 4.80565C197.725 4.80565 196.654 5.09898 195.672 5.68565C194.704 6.25765 193.926 7.07898 193.34 8.14965C192.753 9.22032 192.46 10.5036 192.46 11.9997C192.46 13.481 192.753 14.7643 193.34 15.8496C193.926 16.9203 194.704 17.749 195.672 18.3356C196.654 18.9076 197.725 19.1936 198.884 19.1936Z" fill="#1F1F26"/>
<path d="M209.804 20.1397V3.85965H211.036V19.0176H219.66V20.1397H209.804Z" fill="#1F1F26"/>
</svg>
