<svg width="122" height="28" viewBox="0 0 122 28" fill="none" xmlns="http://www.w3.org/2000/svg">
<path fill-rule="evenodd" clip-rule="evenodd" d="M18.7325 20.2781V23.8622L27.2246 21.6532L27.2582 21.6469C30.948 20.9521 33.6207 17.7292 33.6207 13.9745V7.92817C33.6207 5.67281 31.7924 3.84448 29.537 3.84448H6C3.23858 3.84448 1 6.08306 1 8.84448V15.2781C1 18.0395 3.23858 20.2781 6 20.2781H18.7325ZM17.7325 25.1556V21.2781H6C2.68629 21.2781 0 18.5918 0 15.2781V8.84448C0 5.53077 2.68629 2.84448 6 2.84448H29.537C32.3446 2.84448 34.6207 5.12053 34.6207 7.92817V13.9745C34.6207 18.2101 31.6057 21.8458 27.4432 22.6296L17.7325 25.1556Z" fill="#1F1F26"/>
<path fill-rule="evenodd" clip-rule="evenodd" d="M20.0031 14.3846C19.8366 14.7745 19.6174 15.1085 19.3621 15.3846C18.1951 16.6472 16.274 16.7031 15.1835 15.3846C15.0032 15.1666 14.8455 14.9109 14.7178 14.6168C14.6848 14.5409 14.6514 14.4635 14.6177 14.3846H20.0031Z" fill="#1F1F26"/>
<path fill-rule="evenodd" clip-rule="evenodd" d="M13.6176 13.3846V11.1021C13.6176 10.0681 12.7794 9.22986 11.7454 9.22986C10.9096 9.22986 10.2321 9.90734 10.2321 10.7431V13.3846H13.6176ZM11.7454 8.22986C10.3573 8.22986 9.23215 9.35506 9.23215 10.7431V14.3846L14.6177 14.3846L14.6176 11.1021C14.6176 9.5158 13.3316 8.22986 11.7454 8.22986Z" fill="#1F1F26"/>
<path fill-rule="evenodd" clip-rule="evenodd" d="M24.3885 13.3846V11.1021C24.3885 10.0681 23.5502 9.22986 22.5162 9.22986C21.6805 9.22986 21.003 9.90734 21.003 10.7431V13.3846H24.3885ZM22.5162 8.22986C21.1282 8.22986 20.003 9.35506 20.003 10.7431L20.0031 14.3846L25.3885 14.3846V11.1021C25.3885 9.5158 24.1025 8.22986 22.5162 8.22986Z" fill="#1F1F26"/>
<path fill-rule="evenodd" clip-rule="evenodd" d="M6 2.84448H29.537C32.3446 2.84448 34.6207 5.12053 34.6207 7.92817V13.9745C34.6207 18.2101 31.6057 21.8458 27.4432 22.6296L17.7325 25.1556V21.2781H6C2.68629 21.2781 0 18.5918 0 15.2781V8.84448C0 5.53077 2.68629 2.84448 6 2.84448ZM27.2246 21.6532L27.2582 21.6469C30.948 20.9521 33.6207 17.7292 33.6207 13.9745V7.92817C33.6207 5.67281 31.7924 3.84448 29.537 3.84448H6C3.23858 3.84448 1 6.08306 1 8.84448V15.2781C1 18.0395 3.23858 20.2781 6 20.2781H18.7325V23.8622L27.2246 21.6532ZM19.3621 15.3846C19.6174 15.1085 19.8366 14.7745 20.0031 14.3846L25.3885 14.3846V11.1021C25.3885 9.5158 24.1025 8.22986 22.5162 8.22986C21.1282 8.22986 20.003 9.35506 20.003 10.7431L20.0031 14.3846H14.6177L14.6176 11.1021C14.6176 9.5158 13.3316 8.22986 11.7454 8.22986C10.3573 8.22986 9.23215 9.35506 9.23215 10.7431V14.3846L14.6177 14.3846C14.6514 14.4635 14.6848 14.5409 14.7178 14.6168C14.8455 14.9109 15.0032 15.1666 15.1835 15.3846C16.274 16.7031 18.1951 16.6472 19.3621 15.3846ZM24.3885 11.1021V13.3846H21.003V10.7431C21.003 9.90734 21.6805 9.22986 22.5162 9.22986C23.5502 9.22986 24.3885 10.0681 24.3885 11.1021ZM13.6176 13.3846V11.1021C13.6176 10.0681 12.7794 9.22986 11.7454 9.22986C10.9096 9.22986 10.2321 9.90734 10.2321 10.7431V13.3846H13.6176Z" fill="#1F1F26"/>
<path d="M47.9407 22V5.72H59.7327V9.372H52.1647V12.892H58.7427V16.39H52.1647V22H47.9407ZM59.4142 22L64.8262 5.72H70.5242L75.9362 22H71.5362L70.6782 19.272H64.6722L63.8142 22H59.4142ZM65.7942 15.664H69.5562L67.6862 9.658L65.7942 15.664ZM77.6965 22V5.72H81.9205V22H77.6965ZM84.55 22V5.72H91.722C92.9394 5.72 94.01 5.918 94.934 6.314C95.858 6.71 96.5767 7.29667 97.09 8.074C97.6034 8.83667 97.86 9.78267 97.86 10.912C97.86 12.012 97.6034 12.9507 97.09 13.728C96.5914 14.4907 95.902 15.07 95.022 15.466L98.19 22H93.548L90.798 16.104H88.774V22H84.55ZM91.656 9.35H88.774V12.738H91.656C92.2427 12.738 92.7194 12.5913 93.086 12.298C93.4527 12.0047 93.636 11.5867 93.636 11.044C93.636 10.4867 93.4527 10.0687 93.086 9.79C92.7194 9.49667 92.2427 9.35 91.656 9.35Z" fill="#1F1F26"/>
<path d="M100.527 22L106.357 5.72H107.853L113.683 22H112.385L110.757 17.468H103.453L101.825 22H100.527ZM103.827 16.368H110.383L107.105 7.172L103.827 16.368ZM116.597 22V5.72H117.829V22H116.597Z" fill="#292929"/>
</svg>
