<?xml version="1.0" encoding="UTF-8" standalone="no"?>
<!-- Created with Inkscape (http://www.inkscape.org/) -->

<svg
   width="46.881001mm"
   height="14.362269mm"
   viewBox="0 0 46.881 14.362269"
   version="1.1"
   id="svg1"
   xml:space="preserve"
   sodipodi:docname="fairai-v3-logo-color-black.svg"
   inkscape:export-filename="fairai-v3-logo-color-black.png"
   inkscape:export-xdpi="96"
   inkscape:export-ydpi="96"
   inkscape:version="1.4.2 (ebf0e940d0, 2025-05-08)"
   xmlns:inkscape="http://www.inkscape.org/namespaces/inkscape"
   xmlns:sodipodi="http://sodipodi.sourceforge.net/DTD/sodipodi-0.dtd"
   xmlns="http://www.w3.org/2000/svg"
   xmlns:svg="http://www.w3.org/2000/svg"><sodipodi:namedview
     id="namedview1"
     pagecolor="#ffffff"
     bordercolor="#000000"
     borderopacity="0.25"
     inkscape:showpageshadow="2"
     inkscape:pageopacity="0.0"
     inkscape:pagecheckerboard="0"
     inkscape:deskcolor="#d1d1d1"
     inkscape:document-units="mm"
     inkscape:zoom="4.8187873"
     inkscape:cx="119.73967"
     inkscape:cy="44.928317"
     inkscape:window-width="2560"
     inkscape:window-height="1412"
     inkscape:window-x="0"
     inkscape:window-y="0"
     inkscape:window-maximized="1"
     inkscape:current-layer="svg1" /><defs
     id="defs1" /><path
     style="fill:#3aaaaa;fill-opacity:1;stroke-width:0.3;stroke-miterlimit:15.4"
     d="M 31.797678,13.956783 36.239317,0.53894368"
     id="path6" /><path
     style="fill:#3aaaaa;fill-opacity:1;stroke-width:0.3;stroke-miterlimit:15.4"
     d="m 44.950206,0.60398861 1.588954,-4e-8 0.0046,13.40854743 -1.593601,-1e-6 z"
     id="path8" /><g
     id="g1"><g
       id="g2"><path
         id="path7"
         style="fill:#3aaaaa;fill-opacity:1;stroke-width:0.3;stroke-miterlimit:15.4"
         d="m 37.329504,0.5808431 -4.470011,13.4332889 1.717208,0.0031 -5.17e-4,0.0016 0.0021,-0.0016 h 0.001 l 5.16e-4,-0.001 4.755782,-3.399793 -0.505912,-1.6123044 -3.429248,2.4349934 2.747119,-8.6278971 3.496944,11.2039671 1.800407,-0.0021 -4.47983,-13.4322549 z"
         sodipodi:nodetypes="ccccccccccccccc" /></g></g><path
     style="font-weight:bold;font-size:18.3444px;font-family:'Be Vietnam Pro';-inkscape-font-specification:'Be Vietnam Pro Bold';fill:#101010;stroke-width:0.3;stroke-miterlimit:15.4"
     d="M 0.32137756,14.18828 V 0.61342381 H 9.2762659 V 3.0715735 H 3.1464152 v 3.5588136 h 4.227675 V 8.9968148 H 3.1464152 V 14.18828 Z"
     id="text11"
     aria-label="F"
     sodipodi:nodetypes="ccccccccccc" /><path
     d="m 13.428429,4.2161599 c 0.623709,0 1.137353,0.1039516 1.54093,0.3118548 0.403577,0.1956736 0.709317,0.4096916 0.91722,0.642054 0.220133,0.2323624 0.354658,0.3913472 0.403577,0.4769544 h 0.146755 V 4.3996039 h 2.788349 v 9.7225321 h -2.788349 v -1.247419 h -0.146755 c -0.04892,0.08561 -0.183446,0.244592 -0.403577,0.476954 -0.207903,0.232363 -0.513643,0.452496 -0.91722,0.660399 -0.403577,0.195673 -0.917221,0.29351 -1.54093,0.29351 -0.721547,0 -1.351371,-0.14064 -1.889473,-0.421921 C 11.013083,13.590148 10.572818,13.204916 10.218159,12.727962 9.8635006,12.238778 9.5944494,11.694561 9.4110054,11.09531 9.239791,10.496059 9.1541838,9.8845793 9.1541838,9.26087 c 0,-0.6237096 0.085607,-1.2351896 0.2568216,-1.83444 0.183444,-0.5992505 0.4524952,-1.1373529 0.8071536,-1.6143073 0.354659,-0.489184 0.794924,-0.8744164 1.320797,-1.1556972 0.538102,-0.2935104 1.167926,-0.4402656 1.889473,-0.4402656 z m 0.807154,2.2563612 c -0.501414,0 -0.923335,0.1406404 -1.265764,0.4219213 -0.330199,0.2690512 -0.580906,0.6175948 -0.75212,1.0456308 -0.158985,0.428036 -0.238478,0.8683016 -0.238478,1.3207968 0,0.4524952 0.07949,0.892761 0.238478,1.320797 0.171214,0.428036 0.421921,0.782694 0.75212,1.063975 0.342429,0.269051 0.76435,0.403577 1.265764,0.403577 0.501413,0 0.91722,-0.134526 1.247419,-0.403577 0.342429,-0.281281 0.593135,-0.635939 0.75212,-1.063975 0.171215,-0.428036 0.256822,-0.8683018 0.256822,-1.320797 0,-0.4524952 -0.08561,-0.8927608 -0.256822,-1.3207968 C 16.076137,7.5120372 15.825431,7.1634936 15.483002,6.8944424 15.152803,6.6131615 14.736996,6.4725211 14.235583,6.4725211 Z m 7.429504,7.6496149 V 4.3996039 h 2.788348 v 9.7225321 z m 5.173113,0 V 4.3996039 h 2.770004 v 1.4125188 h 0.09172 c 0.110067,-0.2568216 0.262937,-0.5075284 0.45861,-0.7521204 0.195673,-0.244592 0.464725,-0.4463804 0.807154,-0.6053652 0.342429,-0.1589848 0.782694,-0.2384772 1.320796,-0.2384772 0.269051,0 0.483069,0.018344 0.642054,0.055033 l 0.238478,0.036689 V 7.059542 L 32.89185,7.004509 C 32.720635,6.96782 32.494388,6.949476 32.213107,6.949476 c -0.868302,0 -1.516471,0.2384772 -1.944507,0.7154316 -0.428036,0.4647248 -0.642054,1.2290748 -0.642054,2.29305 v 4.1641784 z"
     id="text12"
     style="font-weight:bold;font-size:18.3444px;font-family:'Be Vietnam Pro';-inkscape-font-specification:'Be Vietnam Pro Bold';fill:#101010;stroke-width:0.3;stroke-miterlimit:15.4"
     aria-label="air" /><path
     d="m 23.059261,3.6079738 c -0.489184,0 -0.886646,-0.15287 -1.192386,-0.45861 -0.30574,-0.3179696 -0.45861,-0.6909724 -0.45861,-1.1190085 0,-0.4524952 0.15287,-0.8316128 0.45861,-1.13735282 0.30574,-0.31796961 0.703202,-0.47695441 1.192386,-0.47695441 0.464725,0 0.856072,0.1589848 1.174042,0.47695441 0.317969,0.30574002 0.476954,0.68485762 0.476954,1.13735282 0,0.4280361 -0.158985,0.8010389 -0.476954,1.1190085 -0.31797,0.30574 -0.709317,0.45861 -1.174042,0.45861 z"
     style="font-weight:bold;font-size:18.3444px;font-family:'Be Vietnam Pro';-inkscape-font-specification:'Be Vietnam Pro Bold';fill:#3aaaaa;fill-opacity:1;stroke-width:0.3;stroke-miterlimit:15.4"
     id="path1-6" /></svg>
