<?xml version="1.0" encoding="utf-8"?>
<svg width="232.749" height="34" viewBox="277.9211 433.3934 232.7429 34.5416" fill="none" xmlns="http://www.w3.org/2000/svg">
  <path fill-rule="evenodd" clip-rule="evenodd" d="M 310.076 463.057 L 310.076 466.641 L 318.568 464.432 L 318.602 464.426 C 322.292 463.731 324.964 460.508 324.964 456.754 L 324.964 450.707 C 324.964 448.452 323.136 446.624 320.881 446.624 L 297.344 446.624 C 294.582 446.624 292.344 448.862 292.344 451.624 L 292.344 458.057 C 292.344 460.819 294.582 463.057 297.344 463.057 L 310.076 463.057 Z M 309.076 467.935 L 309.076 464.057 L 297.344 464.057 C 294.03 464.057 291.344 461.371 291.344 458.057 L 291.344 451.624 C 291.344 448.31 294.03 445.624 297.344 445.624 L 320.881 445.624 C 323.688 445.624 325.964 447.9 325.964 450.707 L 325.964 456.754 C 325.964 460.989 322.949 464.625 318.787 465.409 L 309.076 467.935 Z" fill="#1F1F26"/>
  <path fill-rule="evenodd" clip-rule="evenodd" d="M 311.347 457.164 C 311.18 457.554 310.961 457.888 310.706 458.164 C 309.539 459.426 307.618 459.482 306.527 458.164 C 306.347 457.946 306.189 457.69 306.062 457.396 C 306.029 457.32 305.995 457.243 305.961 457.164 L 311.347 457.164 Z" fill="#1F1F26"/>
  <path fill-rule="evenodd" clip-rule="evenodd" d="M 304.961 456.164 L 304.961 453.881 C 304.961 452.847 304.123 452.009 303.089 452.009 C 302.253 452.009 301.576 452.686 301.576 453.522 L 301.576 456.164 L 304.961 456.164 Z M 303.089 451.009 C 301.701 451.009 300.576 452.134 300.576 453.522 L 300.576 457.164 L 305.961 457.164 L 305.961 453.881 C 305.961 452.295 304.675 451.009 303.089 451.009 Z" fill="#1F1F26"/>
  <path fill-rule="evenodd" clip-rule="evenodd" d="M 315.732 456.164 L 315.732 453.881 C 315.732 452.847 314.894 452.009 313.86 452.009 C 313.024 452.009 312.347 452.686 312.347 453.522 L 312.347 456.164 L 315.732 456.164 Z M 313.86 451.009 C 312.472 451.009 311.347 452.134 311.347 453.522 L 311.347 457.164 L 316.732 457.164 L 316.732 453.881 C 316.732 452.295 315.446 451.009 313.86 451.009 Z" fill="#1F1F26"/>
  <path fill-rule="evenodd" clip-rule="evenodd" d="M 297.344 445.624 L 320.881 445.624 C 323.688 445.624 325.964 447.9 325.964 450.707 L 325.964 456.754 C 325.964 460.989 322.949 464.625 318.787 465.409 L 309.076 467.935 L 309.076 464.057 L 297.344 464.057 C 294.03 464.057 291.344 461.371 291.344 458.057 L 291.344 451.624 C 291.344 448.31 294.03 445.624 297.344 445.624 Z M 318.568 464.432 L 318.602 464.426 C 322.292 463.731 324.964 460.508 324.964 456.754 L 324.964 450.707 C 324.964 448.452 323.136 446.624 320.881 446.624 L 297.344 446.624 C 294.582 446.624 292.344 448.862 292.344 451.624 L 292.344 458.057 C 292.344 460.819 294.582 463.057 297.344 463.057 L 310.076 463.057 L 310.076 466.641 L 318.568 464.432 Z M 310.706 458.164 C 310.961 457.888 311.18 457.554 311.347 457.164 L 316.732 457.164 L 316.732 453.881 C 316.732 452.295 315.446 451.009 313.86 451.009 C 312.472 451.009 311.347 452.134 311.347 453.522 L 311.347 457.164 L 305.961 457.164 L 305.961 453.881 C 305.961 452.295 304.675 451.009 303.089 451.009 C 301.701 451.009 300.576 452.134 300.576 453.522 L 300.576 457.164 L 305.961 457.164 C 305.995 457.243 306.029 457.32 306.062 457.396 C 306.189 457.69 306.347 457.946 306.527 458.164 C 307.618 459.482 309.539 459.426 310.706 458.164 Z M 315.732 453.881 L 315.732 456.164 L 312.347 456.164 L 312.347 453.522 C 312.347 452.686 313.024 452.009 313.86 452.009 C 314.894 452.009 315.732 452.847 315.732 453.881 Z M 304.961 456.164 L 304.961 453.881 C 304.961 452.847 304.123 452.009 303.089 452.009 C 302.253 452.009 301.576 452.686 301.576 453.522 L 301.576 456.164 L 304.961 456.164 Z" fill="#1F1F26"/>
  <g id="g-1" transform="matrix(-0.366330057383, 0.185352981091, 0.185352981091, 0.366330057383, -362.255464426227, -79.596472074711)" style="transform-origin: 653.896px 524.881px;">
    <g style="" transform="matrix(0.113615, 0, 0, 0.113615, 604.655457, 481.343414)">
      <g>
        <path d="M203.088,436.81c0,0,121.289-218.016,234.086-213.367c52.271,2.155,80.667,54.58,189.018,187.39 c23.68,29.025-73.957,0.844-99.832-13.711c0,0,29.678,71.323,17.55,81.504C521.256,497.642,188.534,470.771,203.088,436.81z"/>
        <path style="fill:#FF0000;" d="M214.989,431.339c0,0,117.473-205.47,219.314-200.9c52.262,2.345,64.324,43.946,183.472,178.285 c24.855,28.025-78.717-9.817-104.593-24.371c0,0,33.153,80.05,21.025,90.231C511.553,493.6,200.434,465.299,214.989,431.339z"/>
        <path d="M533.792,394.077c-23.439-14.475-31.93-28.12-58.411-67.336c0,0,39.928,64.925,46.647,80.675 c6.72,15.75-3.59-15.027,0.655-15.027S536.182,395.552,533.792,394.077z"/>
        <path style="fill:#BA0808;" d="M475.381,326.74c0,0,89.802,82.597,124.642,83.022c0,0-3.117,4.079-3.667,5.668 c-0.417,1.205-47.293-3.131-79.019-31.988C504.21,371.502,484.852,340.772,475.381,326.74z"/>
        <path d="M460.028,332.805c0,0,24.459,12.937,54.497,60.486C525.396,410.499,497.02,347.764,460.028,332.805z"/>
      </g>
      <g>
        <path d="M556.344,493.337c-0.495-6.746-0.266-11.763-17.707-26.07c-18.356-9.955-32.218-13.512-43.255-14.848 c-3.575-0.434,18.395-3.008,15.385-3.985c-48.516-15.768-95.818-12.332-95.818-12.332l17.284-10.511 c-28.604-7.885-89.09-6.377-115.904-2.459l19.429-9.216c-38.666-1.87-84.902,3.968-107.871,15.085 c-2.298,1.113,1.069-6.262,1.069-6.262l-16.761,4.67c-18.54,6.636-26.521,14.498-27.281,33.827l-0.266,30.723 c-0.547,9.507,11.494,17.166,27.468,13.458c0,0,38.529-8.045,155.166,0.17c110.185,7.761,149.423,34.535,149.423,34.535 c18.271,8.081,28.894-1.364,35.337-19.125L556.344,493.337z"/>
        <path style="fill:#FFFFFF;" d="M528.875,536.977c-2.731,0-5.852-0.742-9.28-2.21c-2.893-1.851-11.365-8.533-40.852-16.815 c-2.076-0.583,6.857-1.092,6.857-1.092c-17.284-2.426-53.776-10.246-77.602-13.34c-5.678-0.736,14.43-2.911,8.247-3.54 c-7.153-0.728-40.685,0.111-48.537-0.442c-31.446-2.215-80.92,0.038-99.922-9.867c-2.489-1.299,9.185,6.156,6.465,6.156 c-24.087,0-40.298,0.677-50.245,1.937c-9.512,1.206-13.959-3.055-13.428-2.129c2.351,4.093,0.586,3.785,0.298,3.846l-0.132,0.029 c-2.276,0.528-4.515,0.796-6.654,0.796c-4.98,0-9.374-1.504-11.753-4.024c-1.165-1.234-1.715-2.57-1.634-3.974l0.01-0.297 l0.264-30.629c0.62-15.518,8.887-24.977,30.719-31.243l-3.841,7.378c23.752-10.107,37.347-19.779,95.009-19.811 c-0.869,1.197-13.039,11.432-13.039,11.432s49.021-6.378,118.219,0.293c-0.345,0.98-10.979,8.693-10.979,8.693 s27.088,1.414,30.727,1.414c18.132,0,40.48,4.552,55.287,9.047c-5.862,0.758-8.545,3.736-8.667,4.067 c0,0,7.456,1.579,11.333,2.54c13.608,3.373,54.946,16.387,54.501,37.883l-4.103,26.396 c-6.491,17.443-14.537,17.506-17.238,17.506C528.894,536.977,528.884,536.977,528.875,536.977z"/>
        <path style="fill:#E5E5E5;" d="M542.38,527.54c-5.555,9.388-11.281,9.437-13.476,9.437h-0.037c-2.729,0-5.845-0.752-9.277-2.22 c-2.888-1.843-11.365-8.525-40.85-16.809c-2.074-0.583,6.865-1.092,6.865-1.092c-17.296-2.426-53.779-10.249-77.613-13.342 c-5.676-0.74,14.434-2.912,8.248-3.542c-7.156-0.728-40.68,0.109-48.528-0.437c-31.45-2.22-80.923,0.036-99.929-9.873 c-2.486-1.298,9.182,6.162,6.465,6.162c-24.088,0-40.292,0.679-50.238,1.94c-9.521,1.201-13.96-3.056-13.438-2.134 c2.352,4.087,0.594,3.784,0.303,3.845l-0.134,0.036c-2.28,0.521-4.512,0.788-6.646,0.788c-4.985,0-9.376-1.503-11.753-4.026 c-1.176-1.226-1.722-2.571-1.637-3.967l0.012-0.303l0.255-30.625c0.437-10.71,4.499-18.521,14.143-24.404 c-3.026,2.767-10.606,9.034-9.595,20.151l0.379,24.713l0,0c0.48,3.79,2.412,6.049,3.714,7.126 c3.942,3.259,9.092,2.444,14.077,2.444c2.134,0,4.378-0.267,6.646-0.788l0.134-0.036c0.291-0.061,2.049,0.242-0.291-3.845 c-0.534-0.922,3.917,3.335,13.427,2.134c9.945-1.261,26.149-1.939,50.238-1.939c2.729,0-8.951-7.46-6.465-6.162 c19.006,9.909,68.479,7.653,99.929,9.873c7.847,0.546,44.637,3.15,51.793,3.878c6.174,0.63-11.942,4.718-6.267,5.458 c23.833,3.093,57.562,7.328,74.845,9.754c0,0-9.502,1.843-7.429,2.426c29.498,8.284,36.048,11.863,38.947,13.706 c3.42,1.468,6.537,2.22,9.278,2.22c0,0,0.013,0,0.024,0C539.335,528.086,540.705,528.086,542.38,527.54z"/>
      </g>
      <g>
        <path d="M605.095,470.902c-5.431-4.046-36.53-20.999-24.974-55.587c3.386-10.132,13.794-22.931,20.729-28.708 c0.821-0.684-5.086,14.443-0.303,10.613c15.538-12.441,39.81-23.444,55.914-19.135c1.367,0.365-11.646,7.652-10.29,8.143 c1.887,0.684,26.38,8.642,35.988,29.462c0,0-5.607-4.122-8.688,0.633c-1.833,2.83,6.723,11.623,2.112,34.466 c-2.233,11.067-12.674,28.604-23.56,30.354c0,0,0.815-9.578-1.444-8.624c-26.237,11.081-51.548,7.984-53.772,4.549 C596.574,476.708,608.104,473.147,605.095,470.902z"/>
        <path style="fill:#FFFFFF;" d="M608.822,474.511c1.157,0.009,3.928-1.543,2.063-3.746c-2.355-2.785-36.885-17.396-24.813-53.705 c1.679-5.053,8.041-16.109,7.688-13.904c-0.38,2.38,0.308,9.543,4.334,4.48c9.447-11.881,31.036-24.835,44.784-24.465 c0.031,0.349-4.611,2.905-3.173,5.335c1.016,1.72,22.305,4.403,37.19,22.769c-4.756-2.631-8.386,1.096-8.268,2.578 c0.654,8.168,6.186,15.753,2.858,32.772c-1.774,9.07-7.771,21.953-13.181,25.268c-0.985-1.39,0.256-6.953-4.077-10.876 c-0.884-0.799-0.013,1.927-4.843,5.596C631.506,480.192,609.646,475.228,608.822,474.511z"/>
        <path style="fill:#E5E5E5;" d="M672.589,437.448c-0.045,2.924-0.372,6.208-1.128,9.938c-1.849,9.047-7.934,21.897-13.366,25.168 c-0.973-1.401-1.251-7.848-3.069-10.749c-0.253-0.404-0.952,1.77-5.817,5.396c-17.977,13.455-39.798,8.336-40.615,7.615 c1.151,0.008,3.939-1.524,2.087-3.733c-2.212-2.66-33.201-16.129-25.995-48.304c0.181,25.242,25.101,36.229,27.073,38.608 c1.852,2.209-0.927,3.741-2.09,3.731c0.821,0.724,22.651,5.841,40.627-7.613c4.854-3.627,3.983-6.344,4.879-5.557 c2.53,2.225,4.097,9.3,3.999,10.91c5.433-3.273,11.528-16.122,13.366-25.17C672.551,437.606,672.576,437.521,672.589,437.448z"/>
      </g>
    </g>
  </g>
  <path d="M 337.964 464.919 L 337.964 448.639 L 349.756 448.639 L 349.756 452.291 L 342.188 452.291 L 342.188 455.811 L 348.766 455.811 L 348.766 459.309 L 342.188 459.309 L 342.188 464.919 L 337.964 464.919 Z" fill="#1F1F26"/>
  <path d="M 349.438 464.919 L 354.85 448.639 L 360.548 448.639 L 365.96 464.919 L 361.56 464.919 L 360.702 462.191 L 354.696 462.191 L 353.838 464.919 L 349.438 464.919 Z M 355.818 458.583 L 359.58 458.583 L 357.71 452.577 L 355.818 458.583 Z" fill="#1F1F26"/>
  <path d="M 367.72 464.919 L 367.72 448.639 L 371.944 448.639 L 371.944 464.919 L 367.72 464.919 Z" fill="#1F1F26"/>
  <path d="M 374.574 464.919 L 374.574 448.639 L 381.746 448.639 C 382.963 448.639 384.034 448.837 384.958 449.233 C 385.882 449.629 386.6 450.216 387.114 450.993 C 387.627 451.756 387.884 452.702 387.884 453.831 C 387.884 454.931 387.627 455.87 387.114 456.647 C 386.615 457.41 385.926 457.989 385.046 458.385 L 388.214 464.919 L 383.572 464.919 L 380.822 459.023 L 378.798 459.023 L 378.798 464.919 L 374.574 464.919 Z M 381.68 452.269 L 378.798 452.269 L 378.798 455.657 L 381.68 455.657 C 382.266 455.657 382.743 455.51 383.11 455.217 C 383.476 454.924 383.66 454.506 383.66 453.963 C 383.66 453.406 383.476 452.988 383.11 452.709 C 382.743 452.416 382.266 452.269 381.68 452.269 Z" fill="#1F1F26"/>
  <path d="M 391.474 464.919 L 391.474 448.639 L 396.996 448.639 C 398.155 448.639 399.123 448.888 399.9 449.387 C 400.692 449.871 401.279 450.502 401.66 451.279 C 402.056 452.042 402.254 452.848 402.254 453.699 C 402.254 454.535 402.056 455.342 401.66 456.119 C 401.279 456.896 400.692 457.534 399.9 458.033 C 399.123 458.517 398.155 458.759 396.996 458.759 L 392.706 458.759 L 392.706 464.919 L 391.474 464.919 Z M 396.996 449.761 L 392.706 449.761 L 392.706 457.637 L 396.996 457.637 C 397.891 457.637 398.639 457.446 399.24 457.065 C 399.842 456.684 400.289 456.192 400.582 455.591 C 400.876 454.99 401.022 454.359 401.022 453.699 C 401.022 453.039 400.876 452.408 400.582 451.807 C 400.289 451.206 399.842 450.714 399.24 450.333 C 398.639 449.952 397.891 449.761 396.996 449.761 Z" fill="#1F1F26"/>
  <path d="M 405.095 464.919 L 405.095 448.639 L 410.309 448.639 C 411.395 448.639 412.297 448.859 413.015 449.299 C 413.749 449.724 414.291 450.282 414.643 450.971 C 415.01 451.646 415.193 452.357 415.193 453.105 C 415.193 453.78 415.047 454.425 414.753 455.041 C 414.475 455.657 414.049 456.192 413.477 456.647 C 412.905 457.087 412.194 457.373 411.343 457.505 L 415.721 464.919 L 414.291 464.919 L 410.001 457.593 L 406.327 457.593 L 406.327 464.919 L 405.095 464.919 Z M 410.309 449.761 L 406.327 449.761 L 406.327 456.493 L 410.309 456.493 C 411.116 456.493 411.783 456.332 412.311 456.009 C 412.854 455.672 413.257 455.246 413.521 454.733 C 413.785 454.22 413.917 453.684 413.917 453.127 C 413.917 452.57 413.785 452.034 413.521 451.521 C 413.257 451.008 412.854 450.59 412.311 450.267 C 411.783 449.93 411.116 449.761 410.309 449.761 Z" fill="#1F1F26"/>
  <path d="M 426.165 465.139 C 424.904 465.139 423.789 464.904 422.821 464.435 C 421.868 463.951 421.068 463.313 420.423 462.521 C 419.778 461.714 419.286 460.82 418.949 459.837 C 418.626 458.84 418.465 457.82 418.465 456.779 C 418.465 455.738 418.626 454.718 418.949 453.721 C 419.286 452.724 419.778 451.829 420.423 451.037 C 421.068 450.23 421.868 449.592 422.821 449.123 C 423.789 448.654 424.904 448.419 426.165 448.419 C 427.426 448.419 428.534 448.654 429.487 449.123 C 430.455 449.592 431.262 450.23 431.907 451.037 C 432.567 451.829 433.058 452.724 433.381 453.721 C 433.704 454.718 433.865 455.738 433.865 456.779 C 433.865 457.82 433.704 458.84 433.381 459.837 C 433.058 460.82 432.567 461.714 431.907 462.521 C 431.262 463.313 430.455 463.951 429.487 464.435 C 428.534 464.904 427.426 465.139 426.165 465.139 Z M 426.165 463.973 C 427.338 463.973 428.409 463.687 429.377 463.115 C 430.36 462.528 431.144 461.7 431.731 460.629 C 432.318 459.544 432.611 458.26 432.611 456.779 C 432.611 455.283 432.318 454 431.731 452.929 C 431.144 451.858 430.36 451.037 429.377 450.465 C 428.409 449.878 427.338 449.585 426.165 449.585 C 425.006 449.585 423.936 449.878 422.953 450.465 C 421.985 451.037 421.208 451.858 420.621 452.929 C 420.034 454 419.741 455.283 419.741 456.779 C 419.741 458.26 420.034 459.544 420.621 460.629 C 421.208 461.7 421.985 462.528 422.953 463.115 C 423.936 463.687 425.006 463.973 426.165 463.973 Z" fill="#1F1F26"/>
  <path d="M 440.027 464.919 L 440.027 449.761 L 434.549 449.761 L 434.549 448.639 L 446.715 448.639 L 446.715 449.761 L 441.259 449.761 L 441.259 464.919 L 440.027 464.919 Z" fill="#1F1F26"/>
  <path d="M 455.062 465.139 C 453.8 465.139 452.686 464.904 451.718 464.435 C 450.764 463.951 449.965 463.313 449.32 462.521 C 448.674 461.714 448.183 460.82 447.846 459.837 C 447.523 458.84 447.362 457.82 447.362 456.779 C 447.362 455.738 447.523 454.718 447.846 453.721 C 448.183 452.724 448.674 451.829 449.32 451.037 C 449.965 450.23 450.764 449.592 451.718 449.123 C 452.686 448.654 453.8 448.419 455.062 448.419 C 456.323 448.419 457.43 448.654 458.384 449.123 C 459.352 449.592 460.158 450.23 460.804 451.037 C 461.464 451.829 461.955 452.724 462.278 453.721 C 462.6 454.718 462.762 455.738 462.762 456.779 C 462.762 457.82 462.6 458.84 462.278 459.837 C 461.955 460.82 461.464 461.714 460.804 462.521 C 460.158 463.313 459.352 463.951 458.384 464.435 C 457.43 464.904 456.323 465.139 455.062 465.139 Z M 455.062 463.973 C 456.235 463.973 457.306 463.687 458.274 463.115 C 459.256 462.528 460.041 461.7 460.628 460.629 C 461.214 459.544 461.508 458.26 461.508 456.779 C 461.508 455.283 461.214 454 460.628 452.929 C 460.041 451.858 459.256 451.037 458.274 450.465 C 457.306 449.878 456.235 449.585 455.062 449.585 C 453.903 449.585 452.832 449.878 451.85 450.465 C 450.882 451.037 450.104 451.858 449.518 452.929 C 448.931 454 448.638 455.283 448.638 456.779 C 448.638 458.26 448.931 459.544 449.518 460.629 C 450.104 461.7 450.882 462.528 451.85 463.115 C 452.832 463.687 453.903 463.973 455.062 463.973 Z" fill="#1F1F26"/>
  <path d="M 472.888 465.139 C 471.642 465.139 470.549 464.904 469.61 464.435 C 468.686 463.966 467.909 463.335 467.278 462.543 C 466.662 461.736 466.193 460.834 465.87 459.837 C 465.562 458.84 465.408 457.813 465.408 456.757 C 465.408 455.716 465.562 454.704 465.87 453.721 C 466.193 452.724 466.662 451.829 467.278 451.037 C 467.909 450.23 468.686 449.592 469.61 449.123 C 470.549 448.654 471.642 448.419 472.888 448.419 C 473.9 448.419 474.766 448.551 475.484 448.815 C 476.218 449.079 476.826 449.416 477.31 449.827 C 477.809 450.238 478.205 450.678 478.498 451.147 C 478.806 451.616 479.034 452.056 479.18 452.467 C 479.342 452.878 479.444 453.215 479.488 453.479 C 479.547 453.743 479.576 453.875 479.576 453.875 L 478.322 453.875 C 478.322 453.875 478.286 453.736 478.212 453.457 C 478.139 453.164 478 452.804 477.794 452.379 C 477.604 451.939 477.31 451.506 476.914 451.081 C 476.518 450.656 475.99 450.304 475.33 450.025 C 474.685 449.732 473.878 449.585 472.91 449.585 C 471.869 449.585 470.96 449.79 470.182 450.201 C 469.405 450.612 468.752 451.162 468.224 451.851 C 467.711 452.526 467.322 453.296 467.058 454.161 C 466.794 455.012 466.662 455.877 466.662 456.757 C 466.662 457.666 466.794 458.546 467.058 459.397 C 467.322 460.248 467.711 461.018 468.224 461.707 C 468.752 462.396 469.405 462.946 470.182 463.357 C 470.96 463.768 471.869 463.973 472.91 463.973 C 473.878 463.973 474.685 463.834 475.33 463.555 C 475.99 463.262 476.518 462.902 476.914 462.477 C 477.31 462.037 477.604 461.604 477.794 461.179 C 478 460.754 478.139 460.402 478.212 460.123 C 478.286 459.83 478.322 459.683 478.322 459.683 L 479.576 459.683 C 479.576 459.683 479.547 459.815 479.488 460.079 C 479.444 460.343 479.342 460.68 479.18 461.091 C 479.034 461.502 478.806 461.942 478.498 462.411 C 478.205 462.88 477.809 463.32 477.31 463.731 C 476.826 464.142 476.218 464.479 475.484 464.743 C 474.766 465.007 473.9 465.139 472.888 465.139 Z" fill="#1F1F26"/>
  <path d="M 489.888 465.139 C 488.626 465.139 487.512 464.904 486.544 464.435 C 485.59 463.951 484.791 463.313 484.146 462.521 C 483.5 461.714 483.009 460.82 482.672 459.837 C 482.349 458.84 482.188 457.82 482.188 456.779 C 482.188 455.738 482.349 454.718 482.672 453.721 C 483.009 452.724 483.5 451.829 484.146 451.037 C 484.791 450.23 485.59 449.592 486.544 449.123 C 487.512 448.654 488.626 448.419 489.888 448.419 C 491.149 448.419 492.256 448.654 493.21 449.123 C 494.178 449.592 494.984 450.23 495.63 451.037 C 496.29 451.829 496.781 452.724 497.104 453.721 C 497.426 454.718 497.588 455.738 497.588 456.779 C 497.588 457.82 497.426 458.84 497.104 459.837 C 496.781 460.82 496.29 461.714 495.63 462.521 C 494.984 463.313 494.178 463.951 493.21 464.435 C 492.256 464.904 491.149 465.139 489.888 465.139 Z M 489.888 463.973 C 491.061 463.973 492.132 463.687 493.1 463.115 C 494.082 462.528 494.867 461.7 495.454 460.629 C 496.04 459.544 496.334 458.26 496.334 456.779 C 496.334 455.283 496.04 454 495.454 452.929 C 494.867 451.858 494.082 451.037 493.1 450.465 C 492.132 449.878 491.061 449.585 489.888 449.585 C 488.729 449.585 487.658 449.878 486.676 450.465 C 485.708 451.037 484.93 451.858 484.344 452.929 C 483.757 454 483.464 455.283 483.464 456.779 C 483.464 458.26 483.757 459.544 484.344 460.629 C 484.93 461.7 485.708 462.528 486.676 463.115 C 487.658 463.687 488.729 463.973 489.888 463.973 Z" fill="#1F1F26"/>
  <path d="M 500.808 464.919 L 500.808 448.639 L 502.04 448.639 L 502.04 463.797 L 510.664 463.797 L 510.664 464.919 L 500.808 464.919 Z" fill="#1F1F26"/>
</svg>