<svg xmlns="http://www.w3.org/2000/svg" width="227" height="55" viewBox="0 0 227 55" fill="none">
<path d="M0 24C0 20.6863 2.68629 18 6 18H29.537C32.3447 18 34.6207 20.276 34.6207 23.0837V29.1301C34.6207 33.3657 31.6057 37.0014 27.4432 37.7851L17.3103 36.4336H6C2.68629 36.4336 0 33.7473 0 30.4336V24Z" fill="#F4F4F4"/>
<path d="M17.3103 36.4336L17.7325 40.3111L27.4432 37.7851L17.3103 36.4336Z" fill="#F4F4F4"/>
<path d="M14.6177 29.5403H20.0031C18.9494 32.0075 15.7867 32.2331 14.7178 29.7724C14.6848 29.6965 14.6514 29.6191 14.6177 29.5403Z" fill="#1F1F26"/>
<path d="M9.23218 25.8985C9.23218 24.5105 10.3574 23.3853 11.7454 23.3853C13.3317 23.3853 14.6176 24.6712 14.6176 26.2575V29.54H9.23218V25.8985Z" fill="#1F1F26"/>
<path d="M20.0031 25.8985C20.0031 24.5105 21.1283 23.3853 22.5163 23.3853C24.1025 23.3853 25.3885 24.6712 25.3885 26.2575V29.54H20.0031V25.8985Z" fill="#1F1F26"/>
<path d="M48.32 36V19.72H60.112V23.372H52.544V26.892H59.122V30.39H52.544V36H48.32ZM59.7935 36L65.2055 19.72H70.9035L76.3155 36H71.9155L71.0575 33.272H65.0515L64.1935 36H59.7935ZM66.1735 29.664H69.9355L68.0655 23.658L66.1735 29.664ZM78.0759 36V19.72H82.2999V36H78.0759ZM84.9294 36V19.72H92.1014C93.3187 19.72 94.3894 19.918 95.3134 20.314C96.2374 20.71 96.956 21.2967 97.4694 22.074C97.9827 22.8367 98.2394 23.7827 98.2394 24.912C98.2394 26.012 97.9827 26.9507 97.4694 27.728C96.9707 28.4907 96.2814 29.07 95.4014 29.466L98.5694 36H93.9274L91.1774 30.104H89.1534V36H84.9294ZM92.0354 23.35H89.1534V26.738H92.0354C92.622 26.738 93.0987 26.5913 93.4654 26.298C93.832 26.0047 94.0154 25.5867 94.0154 25.044C94.0154 24.4867 93.832 24.0687 93.4654 23.79C93.0987 23.4967 92.622 23.35 92.0354 23.35Z" fill="#F4F4F4"/>
<path d="M101.83 36V19.72H107.352C108.511 19.72 109.479 19.9693 110.256 20.468C111.048 20.952 111.635 21.5827 112.016 22.36C112.412 23.1227 112.61 23.9293 112.61 24.78C112.61 25.616 112.412 26.4227 112.016 27.2C111.635 27.9773 111.048 28.6153 110.256 29.114C109.479 29.598 108.511 29.84 107.352 29.84H103.062V36H101.83ZM107.352 20.842H103.062V28.718H107.352C108.247 28.718 108.995 28.5273 109.596 28.146C110.197 27.7647 110.645 27.2733 110.938 26.672C111.231 26.0707 111.378 25.44 111.378 24.78C111.378 24.12 111.231 23.4893 110.938 22.888C110.645 22.2867 110.197 21.7953 109.596 21.414C108.995 21.0327 108.247 20.842 107.352 20.842ZM115.451 36V19.72H120.665C121.75 19.72 122.652 19.94 123.371 20.38C124.104 20.8053 124.647 21.3627 124.999 22.052C125.366 22.7267 125.549 23.438 125.549 24.186C125.549 24.8607 125.402 25.506 125.109 26.122C124.83 26.738 124.405 27.2733 123.833 27.728C123.261 28.168 122.55 28.454 121.699 28.586L126.077 36H124.647L120.357 28.674H116.683V36H115.451ZM120.665 20.842H116.683V27.574H120.665C121.472 27.574 122.139 27.4127 122.667 27.09C123.21 26.7527 123.613 26.3273 123.877 25.814C124.141 25.3007 124.273 24.7653 124.273 24.208C124.273 23.6507 124.141 23.1153 123.877 22.602C123.613 22.0887 123.21 21.6707 122.667 21.348C122.139 21.0107 121.472 20.842 120.665 20.842ZM136.521 36.22C135.26 36.22 134.145 35.9853 133.177 35.516C132.224 35.032 131.424 34.394 130.779 33.602C130.134 32.7953 129.642 31.9007 129.305 30.918C128.982 29.9207 128.821 28.9013 128.821 27.86C128.821 26.8187 128.982 25.7993 129.305 24.802C129.642 23.8047 130.134 22.91 130.779 22.118C131.424 21.3113 132.224 20.6733 133.177 20.204C134.145 19.7347 135.26 19.5 136.521 19.5C137.782 19.5 138.89 19.7347 139.843 20.204C140.811 20.6733 141.618 21.3113 142.263 22.118C142.923 22.91 143.414 23.8047 143.737 24.802C144.06 25.7993 144.221 26.8187 144.221 27.86C144.221 28.9013 144.06 29.9207 143.737 30.918C143.414 31.9007 142.923 32.7953 142.263 33.602C141.618 34.394 140.811 35.032 139.843 35.516C138.89 35.9853 137.782 36.22 136.521 36.22ZM136.521 35.054C137.694 35.054 138.765 34.768 139.733 34.196C140.716 33.6093 141.5 32.7807 142.087 31.71C142.674 30.6247 142.967 29.3413 142.967 27.86C142.967 26.364 142.674 25.0807 142.087 24.01C141.5 22.9393 140.716 22.118 139.733 21.546C138.765 20.9593 137.694 20.666 136.521 20.666C135.362 20.666 134.292 20.9593 133.309 21.546C132.341 22.118 131.564 22.9393 130.977 24.01C130.39 25.0807 130.097 26.364 130.097 27.86C130.097 29.3413 130.39 30.6247 130.977 31.71C131.564 32.7807 132.341 33.6093 133.309 34.196C134.292 34.768 135.362 35.054 136.521 35.054ZM150.382 36V20.842H144.904V19.72H157.07V20.842H151.614V36H150.382ZM165.417 36.22C164.156 36.22 163.041 35.9853 162.073 35.516C161.12 35.032 160.321 34.394 159.675 33.602C159.03 32.7953 158.539 31.9007 158.201 30.918C157.879 29.9207 157.717 28.9013 157.717 27.86C157.717 26.8187 157.879 25.7993 158.201 24.802C158.539 23.8047 159.03 22.91 159.675 22.118C160.321 21.3113 161.12 20.6733 162.073 20.204C163.041 19.7347 164.156 19.5 165.417 19.5C166.679 19.5 167.786 19.7347 168.739 20.204C169.707 20.6733 170.514 21.3113 171.159 22.118C171.819 22.91 172.311 23.8047 172.633 24.802C172.956 25.7993 173.117 26.8187 173.117 27.86C173.117 28.9013 172.956 29.9207 172.633 30.918C172.311 31.9007 171.819 32.7953 171.159 33.602C170.514 34.394 169.707 35.032 168.739 35.516C167.786 35.9853 166.679 36.22 165.417 36.22ZM165.417 35.054C166.591 35.054 167.661 34.768 168.629 34.196C169.612 33.6093 170.397 32.7807 170.983 31.71C171.57 30.6247 171.863 29.3413 171.863 27.86C171.863 26.364 171.57 25.0807 170.983 24.01C170.397 22.9393 169.612 22.118 168.629 21.546C167.661 20.9593 166.591 20.666 165.417 20.666C164.259 20.666 163.188 20.9593 162.205 21.546C161.237 22.118 160.46 22.9393 159.873 24.01C159.287 25.0807 158.993 26.364 158.993 27.86C158.993 29.3413 159.287 30.6247 159.873 31.71C160.46 32.7807 161.237 33.6093 162.205 34.196C163.188 34.768 164.259 35.054 165.417 35.054ZM183.244 36.22C181.998 36.22 180.905 35.9853 179.966 35.516C179.042 35.0467 178.265 34.416 177.634 33.624C177.018 32.8173 176.549 31.9153 176.226 30.918C175.918 29.9207 175.764 28.894 175.764 27.838C175.764 26.7967 175.918 25.7847 176.226 24.802C176.549 23.8047 177.018 22.91 177.634 22.118C178.265 21.3113 179.042 20.6733 179.966 20.204C180.905 19.7347 181.998 19.5 183.244 19.5C184.256 19.5 185.122 19.632 185.84 19.896C186.574 20.16 187.182 20.4973 187.666 20.908C188.165 21.3187 188.561 21.7587 188.854 22.228C189.162 22.6973 189.39 23.1373 189.536 23.548C189.698 23.9587 189.8 24.296 189.844 24.56C189.903 24.824 189.932 24.956 189.932 24.956H188.678C188.678 24.956 188.642 24.8167 188.568 24.538C188.495 24.2447 188.356 23.8853 188.15 23.46C187.96 23.02 187.666 22.5873 187.27 22.162C186.874 21.7367 186.346 21.3847 185.686 21.106C185.041 20.8127 184.234 20.666 183.266 20.666C182.225 20.666 181.316 20.8713 180.538 21.282C179.761 21.6927 179.108 22.2427 178.58 22.932C178.067 23.6067 177.678 24.3767 177.414 25.242C177.15 26.0927 177.018 26.958 177.018 27.838C177.018 28.7473 177.15 29.6273 177.414 30.478C177.678 31.3287 178.067 32.0987 178.58 32.788C179.108 33.4773 179.761 34.0273 180.538 34.438C181.316 34.8487 182.225 35.054 183.266 35.054C184.234 35.054 185.041 34.9147 185.686 34.636C186.346 34.3427 186.874 33.9833 187.27 33.558C187.666 33.118 187.96 32.6853 188.15 32.26C188.356 31.8347 188.495 31.4827 188.568 31.204C188.642 30.9107 188.678 30.764 188.678 30.764H189.932C189.932 30.764 189.903 30.896 189.844 31.16C189.8 31.424 189.698 31.7613 189.536 32.172C189.39 32.5827 189.162 33.0227 188.854 33.492C188.561 33.9613 188.165 34.4013 187.666 34.812C187.182 35.2227 186.574 35.56 185.84 35.824C185.122 36.088 184.256 36.22 183.244 36.22ZM200.244 36.22C198.982 36.22 197.868 35.9853 196.9 35.516C195.946 35.032 195.147 34.394 194.502 33.602C193.856 32.7953 193.365 31.9007 193.028 30.918C192.705 29.9207 192.544 28.9013 192.544 27.86C192.544 26.8187 192.705 25.7993 193.028 24.802C193.365 23.8047 193.856 22.91 194.502 22.118C195.147 21.3113 195.946 20.6733 196.9 20.204C197.868 19.7347 198.982 19.5 200.244 19.5C201.505 19.5 202.612 19.7347 203.566 20.204C204.534 20.6733 205.34 21.3113 205.986 22.118C206.646 22.91 207.137 23.8047 207.46 24.802C207.782 25.7993 207.944 26.8187 207.944 27.86C207.944 28.9013 207.782 29.9207 207.46 30.918C207.137 31.9007 206.646 32.7953 205.986 33.602C205.34 34.394 204.534 35.032 203.566 35.516C202.612 35.9853 201.505 36.22 200.244 36.22ZM200.244 35.054C201.417 35.054 202.488 34.768 203.456 34.196C204.438 33.6093 205.223 32.7807 205.81 31.71C206.396 30.6247 206.69 29.3413 206.69 27.86C206.69 26.364 206.396 25.0807 205.81 24.01C205.223 22.9393 204.438 22.118 203.456 21.546C202.488 20.9593 201.417 20.666 200.244 20.666C199.085 20.666 198.014 20.9593 197.032 21.546C196.064 22.118 195.286 22.9393 194.7 24.01C194.113 25.0807 193.82 26.364 193.82 27.86C193.82 29.3413 194.113 30.6247 194.7 31.71C195.286 32.7807 196.064 33.6093 197.032 34.196C198.014 34.768 199.085 35.054 200.244 35.054ZM211.164 36V19.72H212.396V34.878H221.02V36H211.164Z" fill="#fefefe"/>
</svg>