<svg width="33" height="33" viewBox="0 0 33 33" fill="none" xmlns="http://www.w3.org/2000/svg">
<path d="M24.629 18.822C23.9904 19.4454 23.6255 20.3425 23.7167 21.3005C23.8536 22.9426 25.3589 24.1438 27.001 24.1438H29.8901V25.9533C29.8901 29.1008 27.3204 31.6705 24.1729 31.6705H6.71719C3.56969 31.6705 1 29.1008 1 25.9533V15.7201C1 12.5726 3.56969 10.0029 6.71719 10.0029H24.1729C27.3204 10.0029 29.8901 12.5726 29.8901 15.7201V17.9097H26.8186C25.9671 17.9097 25.1916 18.2442 24.629 18.822Z" stroke="#DCDCDC" stroke-width="2" stroke-linecap="round" stroke-linejoin="round"/>
<path d="M1 17.089V10.1402C1 8.33078 2.10999 6.71896 3.79777 6.08034L15.8708 1.51875C17.7562 0.804104 19.7785 2.20304 19.7785 4.22534V10.0033" stroke="#DCDCDC" stroke-width="2" stroke-linecap="round" stroke-linejoin="round"/>
<path d="M31.4999 19.4613V22.5936C31.4999 23.4299 30.8309 24.1142 29.9794 24.1446H26.9991C25.357 24.1446 23.8516 22.9434 23.7148 21.3012C23.6236 20.3432 23.9885 19.4461 24.6271 18.8227C25.1897 18.2449 25.9652 17.9104 26.8167 17.9104H29.9794C30.8309 17.9408 31.4999 18.625 31.4999 19.4613Z" stroke="#DCDCDC" stroke-width="2" stroke-linecap="round" stroke-linejoin="round"/>
<path d="M7.84253 16.4651H18.4862" stroke="#DCDCDC" stroke-width="2" stroke-linecap="round" stroke-linejoin="round"/>
</svg>
