<?xml version="1.0" encoding="UTF-8" standalone="no"?>
<svg
   width="124"
   height="28"
   viewBox="0 0 124 28"
   fill="none"
   version="1.1"
   id="svg7"
   xmlns="http://www.w3.org/2000/svg"
   xmlns:svg="http://www.w3.org/2000/svg">
  <defs
     id="defs7">
    <filter
       style="color-interpolation-filters:sRGB;"
       id="filter8"
       x="0"
       y="0"
       width="1"
       height="1">
      <feColorMatrix
         type="hueRotate"
         values="180"
         result="color1"
         id="feColorMatrix7" />
      <feColorMatrix
         values="-1 0 0 0 1 0 -1 0 0 1 0 0 -1 0 1 -0.21 -0.72 -0.07 2 0 "
         result="color2"
         id="feColorMatrix8" />
    </filter>
    <filter
       style="color-interpolation-filters:sRGB;"
       id="filter10"
       x="0"
       y="0"
       width="1"
       height="1">
      <feColorMatrix
         type="hueRotate"
         values="180"
         result="color1"
         id="feColorMatrix9" />
      <feColorMatrix
         values="-1 0 0 0 1 0 -1 0 0 1 0 0 -1 0 1 -0.21 -0.72 -0.07 2 0 "
         result="color2"
         id="feColorMatrix10" />
    </filter>
    <filter
       style="color-interpolation-filters:sRGB;"
       id="filter12"
       x="0"
       y="0"
       width="1"
       height="1">
      <feColorMatrix
         type="hueRotate"
         values="180"
         result="color1"
         id="feColorMatrix11" />
      <feColorMatrix
         values="-1 0 0 0 1 0 -1 0 0 1 0 0 -1 0 1 -0.21 -0.72 -0.07 2 0 "
         result="color2"
         id="feColorMatrix12" />
    </filter>
  </defs>
  <path
     fill-rule="evenodd"
     clip-rule="evenodd"
     d="m 6,2.84448 h 23.537 c 2.8076,0 5.0837,2.27605 5.0837,5.08369 v 6.04633 c 0,4.2356 -3.015,7.8713 -7.1775,8.6551 l -9.7107,2.526 V 21.2781 H 6 c -3.31371,0 -6,-2.6863 -6,-6 V 8.84448 c 0,-3.31371 2.68629,-6 6,-6 z m 21.2246,18.80872 0.0336,-0.0063 c 3.6898,-0.6948 6.3625,-3.9177 6.3625,-7.6724 V 7.92817 c 0,-2.25536 -1.8283,-4.08369 -4.0837,-4.08369 H 6 c -2.76142,0 -5,2.23858 -5,5 v 6.43362 c 0,2.7614 2.23858,5 5,5 h 12.7325 v 3.5841 z m -7.8625,-6.2686 c 0.2553,-0.2761 0.4745,-0.6101 0.641,-1 h 5.3854 v -3.2825 c 0,-1.5863 -1.286,-2.87224 -2.8723,-2.87224 -1.388,0 -2.5132,1.1252 -2.5132,2.51324 l 10e-5,3.6415 h -5.3854 l -10e-5,-3.2825 c 0,-1.5863 -1.286,-2.87224 -2.8722,-2.87224 -1.3881,0 -2.51325,1.1252 -2.51325,2.51324 v 3.6415 h 5.38555 c 0.0337,0.0789 0.0671,0.1563 0.1001,0.2322 0.1277,0.2941 0.2854,0.5498 0.4657,0.7678 1.0905,1.3185 3.0116,1.2626 4.1786,0 z m 5.0264,-4.2825 v 2.2825 H 21.003 v -2.6415 c 0,-0.83576 0.6775,-1.51324 1.5132,-1.51324 1.034,0 1.8723,0.83824 1.8723,1.87224 z m -10.7709,2.2825 v -2.2825 c 0,-1.034 -0.8382,-1.87224 -1.8722,-1.87224 -0.8358,0 -1.5133,0.67748 -1.5133,1.51324 v 2.6415 z"
     fill="#ffffff"
     id="path5"
     style="filter:url(#filter12)"
     transform="matrix(1.0794128,0,0,1.073888,4.1213128,-0.93140283)" />
  <path
     d="M 45.9407,22 V 5.72 h 11.792 v 3.652 h -7.568 v 3.52 h 6.578 v 3.498 h -6.578 V 22 Z M 63.6463,10.12 c 0.572,0 1.0633,0.0807 1.474,0.242 0.4106,0.1467 0.7406,0.3153 0.99,0.506 0.264,0.1907 0.4546,0.3667 0.572,0.528 0.132,0.1467 0.198,0.22 0.198,0.22 h 0.176 V 10.34 h 4.18 V 22 h -4.18 v -1.276 h -0.176 c 0,0 -0.066,0.0807 -0.198,0.242 -0.1174,0.1467 -0.308,0.3153 -0.572,0.506 -0.2494,0.1907 -0.5794,0.3667 -0.99,0.528 -0.4107,0.1467 -0.902,0.22 -1.474,0.22 -0.8507,0 -1.5914,-0.1687 -2.222,-0.506 -0.616,-0.352 -1.1367,-0.814 -1.562,-1.386 -0.4107,-0.5867 -0.7187,-1.2393 -0.924,-1.958 -0.2054,-0.7187 -0.308,-1.452 -0.308,-2.2 0,-0.748 0.1026,-1.4813 0.308,-2.2 0.2053,-0.7187 0.5133,-1.364 0.924,-1.936 0.4253,-0.5867 0.946,-1.0487 1.562,-1.386 0.6306,-0.352 1.3713,-0.528 2.222,-0.528 z m 1.386,3.322 c -0.484,0 -0.8874,0.1393 -1.21,0.418 -0.3227,0.264 -0.5647,0.6087 -0.726,1.034 -0.1614,0.4107 -0.242,0.836 -0.242,1.276 0,0.44 0.0806,0.8727 0.242,1.298 0.1613,0.4107 0.4033,0.7553 0.726,1.034 0.3226,0.264 0.726,0.396 1.21,0.396 0.484,0 0.8873,-0.132 1.21,-0.396 0.3226,-0.2787 0.5646,-0.6233 0.726,-1.034 0.1613,-0.4253 0.242,-0.858 0.242,-1.298 0,-0.44 -0.0807,-0.8653 -0.242,-1.276 -0.1614,-0.4253 -0.4034,-0.77 -0.726,-1.034 -0.3227,-0.2787 -0.726,-0.418 -1.21,-0.418 z M 75.919,9.174 c -0.6893,0 -1.2613,-0.22 -1.716,-0.66 -0.44,-0.45467 -0.66,-0.99 -0.66,-1.606 0,-0.64533 0.22,-1.188 0.66,-1.628 0.4547,-0.44 1.0267,-0.66 1.716,-0.66 0.6893,0 1.2613,0.22 1.716,0.66 0.4547,0.44 0.682,0.98267 0.682,1.628 0,0.616 -0.2273,1.15133 -0.682,1.606 -0.4547,0.44 -1.0267,0.66 -1.716,0.66 z M 73.829,22 V 10.34 h 4.18 V 22 Z m 6.6964,0 V 10.34 h 4.136 v 1.848 h 0.132 c 0.1173,-0.3227 0.286,-0.638 0.506,-0.946 0.22,-0.3227 0.5353,-0.5867 0.946,-0.792 0.4107,-0.22 0.9533,-0.33 1.628,-0.33 0.352,0 0.616,0.0293 0.792,0.088 0.1907,0.044 0.286,0.066 0.286,0.066 v 4.136 c 0,0 -0.1027,-0.022 -0.308,-0.066 -0.1907,-0.0587 -0.484,-0.088 -0.88,-0.088 -1.056,0 -1.8333,0.2787 -2.332,0.836 -0.484,0.5573 -0.726,1.4593 -0.726,2.706 V 22 Z"
     fill="#ffffff"
     id="path6"
     style="filter:url(#filter8)"
     transform="matrix(1.0794128,0,0,1.073888,0.72122968,-0.93140283)" />
  <path
     d="m 90.3842,22 5.83,-16.28 h 1.496 L 103.54,22 h -1.298 l -1.628,-4.532 H 93.3102 L 91.6822,22 Z m 3.3,-5.632 H 100.24 L 96.9622,7.172 Z M 106.455,22 V 5.72 h 1.232 V 22 Z"
     fill="#dcdcdc"
     id="path7"
     style="filter:url(#filter10)"
     transform="matrix(1.0794128,0,0,1.073888,0.72122968,-0.93140283)" />
</svg>
