<svg width="35" height="24" viewBox="0 0 35 24" fill="none" xmlns="http://www.w3.org/2000/svg">
<path fill-rule="evenodd" clip-rule="evenodd" d="M19.0721 18.2779V21.8619L27.5642 19.653L27.5978 19.6467C31.2876 18.9519 33.9603 15.729 33.9603 11.9743V5.92793C33.9603 3.67257 32.132 1.84424 29.8766 1.84424H6.3396C3.57817 1.84424 1.3396 4.08281 1.3396 6.84423V13.2779C1.3396 16.0393 3.57818 18.2779 6.3396 18.2779H19.0721ZM18.0721 23.1553V19.2779H6.3396C3.02589 19.2779 0.3396 16.5916 0.3396 13.2779V6.84423C0.3396 3.53053 3.02589 0.844238 6.3396 0.844238H29.8766C32.6842 0.844238 34.9603 3.12028 34.9603 5.92793V11.9743C34.9603 16.2099 31.9453 19.8456 27.7828 20.6294L18.0721 23.1553Z" fill="#1F1F26"/>
<path fill-rule="evenodd" clip-rule="evenodd" d="M20.3427 12.3844C20.1762 12.7743 19.957 13.1082 19.7017 13.3844C18.5347 14.647 16.6136 14.7029 15.5231 13.3844C15.3428 13.1663 15.1851 12.9106 15.0574 12.6166C15.0244 12.5406 14.991 12.4633 14.9573 12.3844H20.3427Z" fill="#1F1F26"/>
<path fill-rule="evenodd" clip-rule="evenodd" d="M13.9572 11.3844V9.10184C13.9572 8.06784 13.119 7.22961 12.085 7.22961C11.2492 7.22961 10.5717 7.9071 10.5717 8.74282V11.3844H13.9572ZM12.085 6.22961C10.6969 6.22961 9.57175 7.35481 9.57175 8.74282V12.3844L14.9573 12.3844L14.9572 9.10184C14.9572 7.51555 13.6712 6.22961 12.085 6.22961Z" fill="#1F1F26"/>
<path fill-rule="evenodd" clip-rule="evenodd" d="M24.7281 11.3844V9.10184C24.7281 8.06784 23.8898 7.22961 22.8558 7.22961C22.0201 7.22961 21.3426 7.9071 21.3426 8.74282V11.3844H24.7281ZM22.8558 6.22961C21.4678 6.22961 20.3426 7.35481 20.3426 8.74282L20.3427 12.3844L25.7281 12.3844V9.10184C25.7281 7.51555 24.4421 6.22961 22.8558 6.22961Z" fill="#1F1F26"/>
<path fill-rule="evenodd" clip-rule="evenodd" d="M6.3396 0.844238H29.8766C32.6842 0.844238 34.9603 3.12028 34.9603 5.92793V11.9743C34.9603 16.2099 31.9453 19.8456 27.7828 20.6294L18.0721 23.1553V19.2779H6.3396C3.02589 19.2779 0.3396 16.5916 0.3396 13.2779V6.84423C0.3396 3.53053 3.02589 0.844238 6.3396 0.844238ZM27.5642 19.653L27.5978 19.6467C31.2876 18.9519 33.9603 15.729 33.9603 11.9743V5.92793C33.9603 3.67257 32.132 1.84424 29.8766 1.84424H6.3396C3.57817 1.84424 1.3396 4.08281 1.3396 6.84423V13.2779C1.3396 16.0393 3.57818 18.2779 6.3396 18.2779H19.0721V21.8619L27.5642 19.653ZM19.7017 13.3844C19.957 13.1082 20.1762 12.7743 20.3427 12.3844L25.7281 12.3844V9.10184C25.7281 7.51555 24.4421 6.22961 22.8558 6.22961C21.4678 6.22961 20.3426 7.35481 20.3426 8.74282L20.3427 12.3844H14.9573L14.9572 9.10184C14.9572 7.51555 13.6712 6.22961 12.085 6.22961C10.6969 6.22961 9.57175 7.35481 9.57175 8.74282V12.3844L14.9573 12.3844C14.991 12.4633 15.0244 12.5406 15.0574 12.6166C15.1851 12.9106 15.3428 13.1663 15.5231 13.3844C16.6136 14.7029 18.5347 14.647 19.7017 13.3844ZM24.7281 9.10184V11.3844H21.3426V8.74282C21.3426 7.9071 22.0201 7.22961 22.8558 7.22961C23.8898 7.22961 24.7281 8.06784 24.7281 9.10184ZM13.9572 11.3844V9.10184C13.9572 8.06784 13.119 7.22961 12.085 7.22961C11.2492 7.22961 10.5717 7.9071 10.5717 8.74282V11.3844H13.9572Z" fill="#1F1F26"/>
</svg>
