<svg width="22" height="22" viewBox="0 0 22 22" fill="none" xmlns="http://www.w3.org/2000/svg">
<path d="M21.2483 17.1658L17.5319 13.6759L14.6734 12.5668C15.6252 11.2958 16.1351 9.77941 16.1333 8.22555C16.1333 4.04858 12.5146 0.650391 8.06665 0.650391C3.61867 0.650391 0 4.04858 0 8.22555C0 12.4025 3.61867 15.8007 8.06665 15.8007C9.73573 15.8025 11.3638 15.3154 12.7242 14.4072L13.9021 17.0843L17.6183 20.5744C17.8566 20.7982 18.1396 20.9758 18.451 21.0969C18.7624 21.218 19.0961 21.2804 19.4332 21.2804C19.7703 21.2804 20.104 21.2181 20.4155 21.097C20.7269 20.9758 21.0098 20.7983 21.2482 20.5745C21.4865 20.3507 21.6756 20.085 21.8046 19.7925C21.9336 19.5001 22 19.1867 22 18.8702C22 18.5536 21.9336 18.2402 21.8047 17.9478C21.6757 17.6553 21.4866 17.3896 21.2483 17.1658ZM1.46666 8.22555C1.46666 4.80812 4.42749 2.02769 8.06665 2.02769C11.7058 2.02769 14.6666 4.80812 14.6666 8.22555C14.6666 11.643 11.7058 14.4234 8.06665 14.4234C4.42749 14.4234 1.46666 11.643 1.46666 8.22555ZM20.2111 19.6005C20.0047 19.7939 19.7249 19.9026 19.4333 19.9026C19.1416 19.9026 18.8619 19.7939 18.6555 19.6005L15.1459 16.3048L14.0508 13.8155L16.7016 14.844L20.2112 18.1397C20.4172 18.3335 20.5328 18.5962 20.5328 18.8701C20.5328 19.144 20.4171 19.4066 20.2111 19.6005Z" fill="#545454"/>
</svg>
