<svg width="22" height="22" viewBox="0 0 22 22" fill="none" xmlns="http://www.w3.org/2000/svg">
<path d="M15.9309 20.8892H1.69058C1.30919 20.8892 1 20.5801 1 20.1986V8.91912C1 8.53772 1.30919 8.22854 1.69058 8.22854H4.87603C5.68462 8.22854 6.43392 7.80429 6.84992 7.11093L9.96951 1.91156C10.6427 0.789677 12.2282 0.683028 13.0455 1.70468C13.4307 2.18623 13.5549 2.82628 13.3777 3.41697L12.2009 7.33952C12.068 7.78261 12.3998 8.22854 12.8624 8.22854H18.1282C19.646 8.22854 20.7484 9.67185 20.349 11.1361L18.1516 19.1929C17.8785 20.1945 16.9689 20.8892 15.9309 20.8892Z" stroke="#C4C4C4" stroke-width="1.5" stroke-linecap="round"/>
</svg>
